<svg xmlns="http://www.w3.org/2000/svg" xmlns:xlink="http://www.w3.org/1999/xlink" width="48" height="48" viewBox="0 0 48 48" fill="none">
<path d="M29.4315 26.3514C29.4315 24.058 30.5356 22.2346 32.3486 21.4478C34.1625 20.6612 36.2067 21.0843 37.7859 22.5038C38.2926 22.9584 38.7353 23.177 39.198 22.9643C39.6726 22.7457 39.7502 21.9446 39.7502 21.4466L39.7502 12.9014C39.7502 11.7594 38.89 10.9433 37.7309 10.9433L29.2319 10.9433C26.3974 10.9433 25.7657 8.58872 27.2159 6.96911C29.6035 4.30239 28.3244 0.178935 23.9801 0C19.6363 0.178315 18.3577 4.29507 20.7449 6.96197C22.1949 8.58229 21.5638 10.9431 18.7293 10.9431L10.3556 10.9431C9.19721 10.9431 8.25 11.7592 8.25 12.9013L8.25 39.8915C8.25 41.0338 9.19726 42.0003 10.3556 42.0003L37.7306 42.0003C38.8896 42.0003 39.7499 41.0338 39.7499 39.8915L39.7499 31.4021C39.7499 30.9042 39.6343 30.0661 39.1504 29.8438C38.6697 29.6232 38.1028 29.8534 37.5906 30.3139C36.0176 31.7286 34.0914 32.1222 32.2971 31.3435C30.4935 30.5604 29.4312 28.7189 29.4312 26.4186L29.4315 26.3514Z" fill="#FFFFFF">
</path>
</svg>
