<svg width="59" height="64" viewBox="0 0 59 64" fill="none" xmlns="http://www.w3.org/2000/svg">
<path d="M39.3232 20.3242C41.9111 18.8431 44.2305 17.4027 46.2812 16.0029C48.3483 14.5869 50.098 13.2279 51.5303 11.9258C52.9788 10.6074 54.0856 9.33789 54.8506 8.11719C55.6156 6.89648 55.998 5.72461 55.998 4.60156C55.998 4.32487 55.9655 4.02376 55.9004 3.69824C55.8353 3.35645 55.6644 3.0472 55.3877 2.77051C55.111 2.47754 54.6878 2.2334 54.1182 2.03809C53.5648 1.84277 52.7998 1.74512 51.8232 1.74512C50.7002 1.74512 49.6585 2.03809 48.6982 2.62402C47.7542 3.19368 46.8753 3.9668 46.0615 4.94336C45.2477 5.90365 44.499 7.01855 43.8154 8.28809C43.1481 9.55762 42.5378 10.8841 41.9844 12.2676C41.431 13.6348 40.9346 15.0182 40.4951 16.418C40.0557 17.8014 39.665 19.1035 39.3232 20.3242ZM51.6455 29.6816C51.8571 29.6003 52.0036 29.5596 52.085 29.5596C52.2803 29.5596 52.4349 29.6247 52.5488 29.7549C52.679 29.8851 52.7441 30.056 52.7441 30.2676C52.7441 30.4954 52.6628 30.7396 52.5 31C52.3372 31.2441 52.0524 31.4801 51.6455 31.708L42.2773 37.4141C41.3984 37.9674 40.487 38.5452 39.543 39.1475C38.6152 39.7497 37.6875 40.3519 36.7598 40.9541C35.8483 41.5563 34.9694 42.1341 34.123 42.6875C33.293 43.2572 32.5361 43.778 31.8525 44.25C31.0713 47.6842 30.0947 50.6221 28.9229 53.0635C27.7673 55.5049 26.5465 57.5068 25.2607 59.0693C23.9912 60.6318 22.7298 61.7712 21.4766 62.4873C20.2396 63.2197 19.1572 63.5859 18.2295 63.5859C17.3994 63.5859 16.7402 63.3255 16.252 62.8047C15.7474 62.2839 15.4951 61.5352 15.4951 60.5586C15.4951 59.7773 15.7962 58.752 16.3984 57.4824C17.0007 56.2292 17.8389 54.8538 18.9131 53.3564C19.9873 51.859 21.2487 50.2965 22.6973 48.6689C24.1621 47.0576 25.749 45.4951 27.458 43.9814C27.6533 42.9561 27.93 41.776 28.2881 40.4414C28.6462 39.1068 29.0531 37.6745 29.5088 36.1445C29.9645 34.6146 30.4528 33.0195 30.9736 31.3594C31.4945 29.6992 32.0153 28.0309 32.5361 26.3545L1.69629 43.2734C1.4847 43.3548 1.33822 43.3955 1.25684 43.3955C1.04525 43.3955 0.866211 43.3304 0.719727 43.2002C0.573242 43.07 0.5 42.8991 0.5 42.6875C0.5 42.4922 0.589518 42.2725 0.768555 42.0283C0.947591 41.7842 1.25684 41.5238 1.69629 41.2471C2.88444 40.5472 22.8844 30.0085 24.0889 29.3086C25.2933 28.5924 26.4489 27.9089 27.5557 27.2578C28.6787 26.5905 29.7204 25.9801 30.6807 25.4268C31.641 24.8571 32.4629 24.3688 33.1465 23.9619C33.1465 23.9619 33.179 23.7992 33.2441 23.4736C33.293 23.1644 33.3662 22.7493 33.4639 22.2285C33.5778 21.6914 33.7161 21.0811 33.8789 20.3975C34.0417 19.7139 34.2126 19.014 34.3916 18.2979C34.5869 17.5817 34.7904 16.8737 35.002 16.1738C35.2298 15.4577 35.4658 14.8148 35.71 14.2451C36.1331 13.236 36.654 12.1943 37.2725 11.1201C37.9072 10.0296 38.6152 8.97982 39.3965 7.9707C40.1777 6.94531 41.0322 5.98503 41.96 5.08984C42.8877 4.17839 43.8724 3.389 44.9141 2.72168C45.9557 2.03809 47.0381 1.50098 48.1611 1.11035C49.3005 0.703451 50.4642 0.5 51.6523 0.5C52.8405 0.5 53.8577 0.62207 54.7041 0.866211C55.5505 1.09408 56.2422 1.40332 56.7793 1.79395C57.3164 2.18457 57.707 2.62402 57.9512 3.1123C58.2116 3.58431 58.3418 4.06445 58.3418 4.55273C58.3418 5.85482 58.057 7.0918 57.4873 8.26367C56.9339 9.41927 56.1771 10.526 55.2168 11.584C54.2728 12.6419 53.1579 13.651 51.8721 14.6113C50.6025 15.5716 49.2516 16.4993 47.8193 17.3945C46.4033 18.2897 44.9466 19.1605 43.4492 20.0068C41.9518 20.8369 40.4951 21.6589 39.0791 22.4727C38.4606 24.377 37.8747 26.1673 37.3213 27.8438C36.7842 29.5039 36.2633 31.0827 35.7588 32.5801C35.2705 34.0612 34.7904 35.4772 34.3184 36.8281C33.8626 38.179 33.4069 39.4893 32.9512 40.7588C33.5859 40.3682 34.2939 39.9368 35.0752 39.4648C35.8564 38.9928 36.6702 38.5046 37.5166 38C38.363 37.4792 39.2256 36.9583 40.1045 36.4375C40.9834 35.9004 41.8298 35.3877 42.6436 34.8994L51.6455 29.6816ZM18.0098 59.5088C18.0586 60.2249 18.3027 60.583 18.7422 60.583C19.1491 60.583 19.6781 60.29 20.3291 59.7041C20.9801 59.1182 21.6719 58.2799 22.4043 57.1895C23.153 56.099 23.8936 54.7887 24.626 53.2588C25.3584 51.7451 26.0094 50.0443 26.5791 48.1562C25.9443 48.7585 25.2852 49.4095 24.6016 50.1094C23.9342 50.8255 23.2832 51.5498 22.6484 52.2822C22.0137 53.0146 21.4115 53.7389 20.8418 54.4551C20.2884 55.1712 19.8001 55.8467 19.377 56.4814C18.9538 57.1325 18.6201 57.7184 18.376 58.2393C18.1318 58.7601 18.0098 59.1833 18.0098 59.5088Z" fill="#E94057"/>
</svg>
